<mxfile host="app.diagrams.net" agent="Mozilla/5.0 (Windows NT 10.0; Win64; x64) AppleWebKit/537.36 (KHTML, like Gecko) Chrome/129.0.0.0 Safari/537.36" version="24.7.16">
  <diagram name="Page-1" id="L_Qc2I1fWt6ltQ8IqL6t">
    <mxGraphModel dx="1434" dy="738" grid="1" gridSize="10" guides="1" tooltips="1" connect="1" arrows="1" fold="1" page="1" pageScale="1" pageWidth="850" pageHeight="1100" math="0" shadow="0">
      <root>
        <mxCell id="0" />
        <mxCell id="1" parent="0" />
        <mxCell id="k2ySOzCuEyq3S8-OnmBl-1" value="APPLICANT" style="swimlane;horizontal=0;whiteSpace=wrap;html=1;" vertex="1" parent="1">
          <mxGeometry x="50" y="60" width="1980" height="290" as="geometry" />
        </mxCell>
        <mxCell id="k2ySOzCuEyq3S8-OnmBl-10" value="" style="edgeStyle=orthogonalEdgeStyle;rounded=0;orthogonalLoop=1;jettySize=auto;html=1;" edge="1" parent="k2ySOzCuEyq3S8-OnmBl-1" source="k2ySOzCuEyq3S8-OnmBl-3" target="k2ySOzCuEyq3S8-OnmBl-4">
          <mxGeometry relative="1" as="geometry" />
        </mxCell>
        <mxCell id="k2ySOzCuEyq3S8-OnmBl-3" value="START" style="ellipse;whiteSpace=wrap;html=1;" vertex="1" parent="k2ySOzCuEyq3S8-OnmBl-1">
          <mxGeometry x="40" y="75" width="60" height="50" as="geometry" />
        </mxCell>
        <mxCell id="k2ySOzCuEyq3S8-OnmBl-11" value="" style="edgeStyle=orthogonalEdgeStyle;rounded=0;orthogonalLoop=1;jettySize=auto;html=1;" edge="1" parent="k2ySOzCuEyq3S8-OnmBl-1" source="k2ySOzCuEyq3S8-OnmBl-4" target="k2ySOzCuEyq3S8-OnmBl-6">
          <mxGeometry relative="1" as="geometry" />
        </mxCell>
        <mxCell id="k2ySOzCuEyq3S8-OnmBl-4" value="&lt;b&gt;&lt;u&gt;APPLICATION DETAILS&lt;/u&gt;&lt;/b&gt;&lt;div&gt;1. SELECT PREVIOUSLY DONE APPLICATION&amp;nbsp; - SUBDIVISION OR AMALGAMATION&lt;/div&gt;&lt;div&gt;&lt;br&gt;&lt;/div&gt;&lt;div&gt;2. SELECT APPLICANT TYPE - SELF OR OTHER APPLICANT&amp;nbsp;&amp;nbsp;&lt;span style=&quot;background-color: initial;&quot;&gt;if other applicant enter details&lt;/span&gt;&lt;/div&gt;&lt;div&gt;&lt;span style=&quot;background-color: initial;&quot;&gt;&lt;br&gt;&lt;/span&gt;&lt;/div&gt;&lt;div&gt;3. ENTER PARCEL DETAILS(MULTIPLE IF AMALGAMATION)&lt;/div&gt;" style="whiteSpace=wrap;html=1;align=left;" vertex="1" parent="k2ySOzCuEyq3S8-OnmBl-1">
          <mxGeometry x="160" y="20" width="280" height="160" as="geometry" />
        </mxCell>
        <mxCell id="k2ySOzCuEyq3S8-OnmBl-12" value="" style="edgeStyle=orthogonalEdgeStyle;rounded=0;orthogonalLoop=1;jettySize=auto;html=1;" edge="1" parent="k2ySOzCuEyq3S8-OnmBl-1" source="k2ySOzCuEyq3S8-OnmBl-6" target="k2ySOzCuEyq3S8-OnmBl-7">
          <mxGeometry relative="1" as="geometry" />
        </mxCell>
        <mxCell id="k2ySOzCuEyq3S8-OnmBl-6" value="&lt;b&gt;&lt;u&gt;ATTACH DOCUMENTS&lt;/u&gt;&lt;/b&gt;&lt;div&gt;-&amp;nbsp;&lt;span style=&quot;background-color: rgb(255, 255, 255); color: rgba(0, 0, 0, 0.87); font-family: Roboto, &amp;quot;Helvetica Neue&amp;quot;, sans-serif; font-size: 14px; text-align: start;&quot;&gt;County Recommendation Letter&lt;/span&gt;&lt;/div&gt;&lt;div&gt;&lt;span style=&quot;background-color: rgb(255, 255, 255); color: rgba(0, 0, 0, 0.87); font-family: Roboto, &amp;quot;Helvetica Neue&amp;quot;, sans-serif; font-size: 14px; text-align: start;&quot;&gt;-&amp;nbsp;&lt;/span&gt;&lt;span style=&quot;background-color: rgb(255, 255, 255); color: rgba(0, 0, 0, 0.87); font-family: Roboto, &amp;quot;Helvetica Neue&amp;quot;, sans-serif; font-size: 14px; text-align: start;&quot;&gt;Provisional approval Letter&lt;/span&gt;&lt;/div&gt;&lt;div&gt;&lt;span style=&quot;background-color: rgb(255, 255, 255); color: rgba(0, 0, 0, 0.87); font-family: Roboto, &amp;quot;Helvetica Neue&amp;quot;, sans-serif; font-size: 14px; text-align: start;&quot;&gt;-&amp;nbsp;&lt;/span&gt;&lt;span style=&quot;background-color: rgb(255, 255, 255); color: rgba(0, 0, 0, 0.87); font-family: Roboto, &amp;quot;Helvetica Neue&amp;quot;, sans-serif; font-size: 14px; text-align: start;&quot;&gt;Certificate of Lease / Title&lt;/span&gt;&lt;/div&gt;&lt;div&gt;&lt;span style=&quot;background-color: rgb(255, 255, 255); color: rgba(0, 0, 0, 0.87); font-family: Roboto, &amp;quot;Helvetica Neue&amp;quot;, sans-serif; font-size: 14px; text-align: start;&quot;&gt;-&amp;nbsp;&lt;/span&gt;&lt;span style=&quot;background-color: rgb(255, 255, 255); color: rgba(0, 0, 0, 0.87); font-family: Roboto, &amp;quot;Helvetica Neue&amp;quot;, sans-serif; font-size: 14px; text-align: start;&quot;&gt;Authentification Slip or RIM from survey&lt;/span&gt;&lt;/div&gt;" style="shape=document;whiteSpace=wrap;html=1;boundedLbl=1;" vertex="1" parent="k2ySOzCuEyq3S8-OnmBl-1">
          <mxGeometry x="520" y="20" width="230" height="160" as="geometry" />
        </mxCell>
        <mxCell id="k2ySOzCuEyq3S8-OnmBl-8" value="submit application" style="whiteSpace=wrap;html=1;" vertex="1" parent="k2ySOzCuEyq3S8-OnmBl-1">
          <mxGeometry x="1065" y="70" width="120" height="60" as="geometry" />
        </mxCell>
        <mxCell id="k2ySOzCuEyq3S8-OnmBl-9" value="verifies with OTP" style="rounded=1;whiteSpace=wrap;html=1;" vertex="1" parent="k2ySOzCuEyq3S8-OnmBl-1">
          <mxGeometry x="840" y="190" width="120" height="60" as="geometry" />
        </mxCell>
        <mxCell id="k2ySOzCuEyq3S8-OnmBl-13" style="edgeStyle=orthogonalEdgeStyle;rounded=0;orthogonalLoop=1;jettySize=auto;html=1;entryX=0;entryY=0.5;entryDx=0;entryDy=0;" edge="1" parent="k2ySOzCuEyq3S8-OnmBl-1" source="k2ySOzCuEyq3S8-OnmBl-7" target="k2ySOzCuEyq3S8-OnmBl-8">
          <mxGeometry relative="1" as="geometry" />
        </mxCell>
        <mxCell id="k2ySOzCuEyq3S8-OnmBl-14" value="" style="edgeStyle=orthogonalEdgeStyle;rounded=0;orthogonalLoop=1;jettySize=auto;html=1;" edge="1" parent="k2ySOzCuEyq3S8-OnmBl-1" source="k2ySOzCuEyq3S8-OnmBl-7" target="k2ySOzCuEyq3S8-OnmBl-9">
          <mxGeometry relative="1" as="geometry" />
        </mxCell>
        <mxCell id="k2ySOzCuEyq3S8-OnmBl-7" value="if other applicant?" style="rhombus;whiteSpace=wrap;html=1;" vertex="1" parent="k2ySOzCuEyq3S8-OnmBl-1">
          <mxGeometry x="860" y="60" width="80" height="80" as="geometry" />
        </mxCell>
        <mxCell id="k2ySOzCuEyq3S8-OnmBl-40" value="" style="edgeStyle=orthogonalEdgeStyle;rounded=0;orthogonalLoop=1;jettySize=auto;html=1;" edge="1" parent="k2ySOzCuEyq3S8-OnmBl-1" source="k2ySOzCuEyq3S8-OnmBl-36" target="k2ySOzCuEyq3S8-OnmBl-37">
          <mxGeometry relative="1" as="geometry" />
        </mxCell>
        <mxCell id="k2ySOzCuEyq3S8-OnmBl-41" value="" style="edgeStyle=orthogonalEdgeStyle;rounded=0;orthogonalLoop=1;jettySize=auto;html=1;" edge="1" parent="k2ySOzCuEyq3S8-OnmBl-1" source="k2ySOzCuEyq3S8-OnmBl-36" target="k2ySOzCuEyq3S8-OnmBl-38">
          <mxGeometry relative="1" as="geometry" />
        </mxCell>
        <mxCell id="k2ySOzCuEyq3S8-OnmBl-36" value="PAY INVOICE" style="rhombus;whiteSpace=wrap;html=1;" vertex="1" parent="k2ySOzCuEyq3S8-OnmBl-1">
          <mxGeometry x="1480" y="110" width="120" height="100" as="geometry" />
        </mxCell>
        <mxCell id="k2ySOzCuEyq3S8-OnmBl-37" value="process stalls" style="ellipse;whiteSpace=wrap;html=1;" vertex="1" parent="k2ySOzCuEyq3S8-OnmBl-1">
          <mxGeometry x="1510" y="14" width="60" height="50" as="geometry" />
        </mxCell>
        <mxCell id="k2ySOzCuEyq3S8-OnmBl-43" value="" style="edgeStyle=orthogonalEdgeStyle;rounded=0;orthogonalLoop=1;jettySize=auto;html=1;" edge="1" parent="k2ySOzCuEyq3S8-OnmBl-1" source="k2ySOzCuEyq3S8-OnmBl-38" target="k2ySOzCuEyq3S8-OnmBl-42">
          <mxGeometry relative="1" as="geometry" />
        </mxCell>
        <mxCell id="k2ySOzCuEyq3S8-OnmBl-38" value="DOWNLOAD FINAL APPROVAL LETTER" style="shape=document;whiteSpace=wrap;html=1;boundedLbl=1;" vertex="1" parent="k2ySOzCuEyq3S8-OnmBl-1">
          <mxGeometry x="1700" y="120" width="120" height="80" as="geometry" />
        </mxCell>
        <mxCell id="k2ySOzCuEyq3S8-OnmBl-42" value="ENDS" style="ellipse;whiteSpace=wrap;html=1;" vertex="1" parent="k2ySOzCuEyq3S8-OnmBl-1">
          <mxGeometry x="1890" y="130" width="60" height="60" as="geometry" />
        </mxCell>
        <mxCell id="k2ySOzCuEyq3S8-OnmBl-2" value="SYSTEM" style="swimlane;horizontal=0;whiteSpace=wrap;html=1;" vertex="1" parent="1">
          <mxGeometry x="50" y="350" width="1980" height="240" as="geometry" />
        </mxCell>
        <mxCell id="k2ySOzCuEyq3S8-OnmBl-35" value="GENERATES&lt;br&gt;&lt;div&gt;&lt;span style=&quot;background-color: rgb(243, 250, 252); color: rgb(52, 58, 64); font-family: Roboto, &amp;quot;Helvetica Neue&amp;quot;, sans-serif; text-wrap: nowrap;&quot;&gt;Development Control&amp;nbsp;&lt;/span&gt;&lt;span style=&quot;text-wrap: nowrap; background-color: rgb(243, 250, 252); color: rgb(52, 58, 64); font-family: Roboto, &amp;quot;Helvetica Neue&amp;quot;, sans-serif;&quot;&gt;Approval Fee&lt;/span&gt;&lt;span style=&quot;background-color: initial;&quot;&gt;&amp;nbsp;&lt;/span&gt;&lt;/div&gt;" style="whiteSpace=wrap;html=1;" vertex="1" parent="k2ySOzCuEyq3S8-OnmBl-2">
          <mxGeometry x="1440" y="60" width="200" height="70" as="geometry" />
        </mxCell>
        <mxCell id="k2ySOzCuEyq3S8-OnmBl-15" value="FALSE" style="text;html=1;align=center;verticalAlign=middle;resizable=0;points=[];autosize=1;strokeColor=none;fillColor=none;" vertex="1" parent="1">
          <mxGeometry x="990" y="138" width="60" height="30" as="geometry" />
        </mxCell>
        <mxCell id="k2ySOzCuEyq3S8-OnmBl-16" value="TRUE" style="text;html=1;align=center;verticalAlign=middle;resizable=0;points=[];autosize=1;strokeColor=none;fillColor=none;" vertex="1" parent="1">
          <mxGeometry x="890" y="198" width="60" height="30" as="geometry" />
        </mxCell>
        <mxCell id="k2ySOzCuEyq3S8-OnmBl-17" value="LAO" style="swimlane;horizontal=0;whiteSpace=wrap;html=1;" vertex="1" parent="1">
          <mxGeometry x="50" y="590" width="1980" height="170" as="geometry" />
        </mxCell>
        <mxCell id="k2ySOzCuEyq3S8-OnmBl-18" value="-&amp;nbsp;&lt;span style=&quot;background-color: initial; font-size: 13px;&quot;&gt;Confirm the uploaded documents.&lt;/span&gt;&lt;div&gt;&lt;span style=&quot;font-size: 13px;&quot;&gt;&lt;br&gt;&lt;/span&gt;&lt;div style=&quot;font-size: 13px;&quot;&gt;&lt;span style=&quot;background-color: initial;&quot;&gt;- Add date of approval of the provisional letter&lt;/span&gt;&lt;/div&gt;&lt;/div&gt;" style="whiteSpace=wrap;html=1;align=left;" vertex="1" parent="k2ySOzCuEyq3S8-OnmBl-17">
          <mxGeometry x="1020" y="50" width="210" height="70" as="geometry" />
        </mxCell>
        <mxCell id="k2ySOzCuEyq3S8-OnmBl-19" style="edgeStyle=orthogonalEdgeStyle;rounded=0;orthogonalLoop=1;jettySize=auto;html=1;entryX=0.5;entryY=0;entryDx=0;entryDy=0;" edge="1" parent="1" source="k2ySOzCuEyq3S8-OnmBl-8" target="k2ySOzCuEyq3S8-OnmBl-18">
          <mxGeometry relative="1" as="geometry" />
        </mxCell>
        <mxCell id="k2ySOzCuEyq3S8-OnmBl-21" value="VALIDATOR" style="swimlane;horizontal=0;whiteSpace=wrap;html=1;" vertex="1" parent="1">
          <mxGeometry x="50" y="760" width="1980" height="170" as="geometry" />
        </mxCell>
        <mxCell id="k2ySOzCuEyq3S8-OnmBl-22" value="-&amp;nbsp;&lt;span style=&quot;background-color: initial; font-size: 13px;&quot;&gt;Confirm the uploaded documents.&lt;/span&gt;&lt;div&gt;&lt;span style=&quot;font-size: 13px;&quot;&gt;&lt;br&gt;&lt;/span&gt;&lt;div style=&quot;font-size: 13px;&quot;&gt;&lt;span style=&quot;background-color: initial;&quot;&gt;- can edit date of approval of the provisional letter&lt;/span&gt;&lt;/div&gt;&lt;/div&gt;" style="whiteSpace=wrap;html=1;align=left;" vertex="1" parent="k2ySOzCuEyq3S8-OnmBl-21">
          <mxGeometry x="1020" y="40" width="210" height="70" as="geometry" />
        </mxCell>
        <mxCell id="k2ySOzCuEyq3S8-OnmBl-23" value="DLA" style="swimlane;horizontal=0;whiteSpace=wrap;html=1;" vertex="1" parent="1">
          <mxGeometry x="50" y="930" width="1980" height="290" as="geometry" />
        </mxCell>
        <mxCell id="k2ySOzCuEyq3S8-OnmBl-24" value="&lt;span style=&quot;font-size: 16px;&quot;&gt;Can approve, reject or return&lt;/span&gt;" style="whiteSpace=wrap;html=1;" vertex="1" parent="k2ySOzCuEyq3S8-OnmBl-23">
          <mxGeometry x="1045" y="50" width="160" height="70" as="geometry" />
        </mxCell>
        <mxCell id="k2ySOzCuEyq3S8-OnmBl-31" value="TRUE" style="text;html=1;align=center;verticalAlign=middle;resizable=0;points=[];autosize=1;strokeColor=none;fillColor=none;" vertex="1" parent="k2ySOzCuEyq3S8-OnmBl-23">
          <mxGeometry x="1450" y="50" width="60" height="30" as="geometry" />
        </mxCell>
        <mxCell id="k2ySOzCuEyq3S8-OnmBl-25" value="" style="edgeStyle=orthogonalEdgeStyle;rounded=0;orthogonalLoop=1;jettySize=auto;html=1;" edge="1" parent="1" source="k2ySOzCuEyq3S8-OnmBl-18" target="k2ySOzCuEyq3S8-OnmBl-22">
          <mxGeometry relative="1" as="geometry" />
        </mxCell>
        <mxCell id="k2ySOzCuEyq3S8-OnmBl-26" value="" style="edgeStyle=orthogonalEdgeStyle;rounded=0;orthogonalLoop=1;jettySize=auto;html=1;" edge="1" parent="1" source="k2ySOzCuEyq3S8-OnmBl-22" target="k2ySOzCuEyq3S8-OnmBl-24">
          <mxGeometry relative="1" as="geometry" />
        </mxCell>
        <mxCell id="k2ySOzCuEyq3S8-OnmBl-30" value="" style="edgeStyle=orthogonalEdgeStyle;rounded=0;orthogonalLoop=1;jettySize=auto;html=1;" edge="1" parent="1" source="k2ySOzCuEyq3S8-OnmBl-27" target="k2ySOzCuEyq3S8-OnmBl-29">
          <mxGeometry relative="1" as="geometry" />
        </mxCell>
        <mxCell id="k2ySOzCuEyq3S8-OnmBl-34" style="edgeStyle=orthogonalEdgeStyle;rounded=0;orthogonalLoop=1;jettySize=auto;html=1;entryX=0.5;entryY=1;entryDx=0;entryDy=0;exitX=1;exitY=0.5;exitDx=0;exitDy=0;" edge="1" parent="1" source="k2ySOzCuEyq3S8-OnmBl-27" target="k2ySOzCuEyq3S8-OnmBl-35">
          <mxGeometry relative="1" as="geometry">
            <mxPoint x="1570" y="510" as="targetPoint" />
          </mxGeometry>
        </mxCell>
        <mxCell id="k2ySOzCuEyq3S8-OnmBl-27" value="APPROVE?" style="rhombus;whiteSpace=wrap;html=1;" vertex="1" parent="1">
          <mxGeometry x="1370" y="960" width="120" height="110" as="geometry" />
        </mxCell>
        <mxCell id="k2ySOzCuEyq3S8-OnmBl-29" value="END" style="ellipse;whiteSpace=wrap;html=1;" vertex="1" parent="1">
          <mxGeometry x="1390" y="1120" width="80" height="60" as="geometry" />
        </mxCell>
        <mxCell id="k2ySOzCuEyq3S8-OnmBl-32" value="FALSE" style="text;html=1;align=center;verticalAlign=middle;resizable=0;points=[];autosize=1;strokeColor=none;fillColor=none;" vertex="1" parent="1">
          <mxGeometry x="1360" y="1058" width="60" height="30" as="geometry" />
        </mxCell>
        <mxCell id="k2ySOzCuEyq3S8-OnmBl-33" value="" style="edgeStyle=orthogonalEdgeStyle;rounded=0;orthogonalLoop=1;jettySize=auto;html=1;" edge="1" parent="1" source="k2ySOzCuEyq3S8-OnmBl-24" target="k2ySOzCuEyq3S8-OnmBl-27">
          <mxGeometry relative="1" as="geometry" />
        </mxCell>
        <mxCell id="k2ySOzCuEyq3S8-OnmBl-39" style="edgeStyle=orthogonalEdgeStyle;rounded=0;orthogonalLoop=1;jettySize=auto;html=1;entryX=0.5;entryY=1;entryDx=0;entryDy=0;" edge="1" parent="1" source="k2ySOzCuEyq3S8-OnmBl-35" target="k2ySOzCuEyq3S8-OnmBl-36">
          <mxGeometry relative="1" as="geometry" />
        </mxCell>
      </root>
    </mxGraphModel>
  </diagram>
</mxfile>
